<?xml version="1.0" encoding="UTF-8" standalone="no"?>
<!-- Created with Inkscape (http://www.inkscape.org/) -->

<svg
   width="64"
   height="64"
   viewBox="0 0 16.933333 16.933333"
   version="1.1"
   id="svg1"
   inkscape:version="1.4.2 (f4327f4, 2025-05-13)"
   sodipodi:docname="reset.svg"
   xmlns:inkscape="http://www.inkscape.org/namespaces/inkscape"
   xmlns:sodipodi="http://sodipodi.sourceforge.net/DTD/sodipodi-0.dtd"
   xmlns="http://www.w3.org/2000/svg"
   xmlns:svg="http://www.w3.org/2000/svg"
   xmlns:rdf="http://www.w3.org/1999/02/22-rdf-syntax-ns#"
   xmlns:cc="http://creativecommons.org/ns#"
   xmlns:dc="http://purl.org/dc/elements/1.1/">
  <sodipodi:namedview
     id="namedview1"
     pagecolor="#505050"
     bordercolor="#eeeeee"
     borderopacity="1"
     inkscape:showpageshadow="false"
     inkscape:pageopacity="0"
     inkscape:pagecheckerboard="true"
     inkscape:deskcolor="#505050"
     inkscape:document-units="px"
     borderlayer="true"
     labelstyle="default"
     inkscape:clip-to-page="false"
     inkscape:zoom="1.0005561"
     inkscape:cx="-102.44303"
     inkscape:cy="-77.956649"
     inkscape:window-width="1920"
     inkscape:window-height="991"
     inkscape:window-x="-9"
     inkscape:window-y="-9"
     inkscape:window-maximized="1"
     inkscape:current-layer="layer1" />
  <defs
     id="defs1" />
  <g
     inkscape:label="Layer 1"
     inkscape:groupmode="layer"
     id="layer1">
    <path
       d="M 8.472209,2.1165246 6.2278199,3.4182806 3.9838808,4.7204887 6.2278199,6.0226969 8.472209,7.3244528 V 5.6614246 a 3.6193018,3.6369809 0 0 1 0.037346,0 3.6193018,3.6369809 0 0 1 3.61946,3.6366874 3.6193018,3.6369809 0 0 1 -3.6194596,3.63714 3.6193018,3.6369809 0 0 1 -3.6190099,-3.63714 3.6193018,3.6369809 0 0 1 0,-0.037529 h -1.872724 a 5.4916346,5.5184594 0 0 0 0,0.037529 5.4916346,5.5184594 0 0 0 5.4917339,5.518559 5.4916346,5.5184594 0 0 0 5.4917336,-5.518559 5.4916346,5.5184594 0 0 0 -5.4917336,-5.5185591 5.4916346,5.5184594 0 0 0 -0.037346,0 z"
       style="fill:#ffffff;fill-opacity:0.997072;stroke:#000000;stroke-width:4.23333;stroke-linecap:square;stroke-linejoin:round;stroke-miterlimit:100;paint-order:stroke markers fill"
       id="path5" />
  </g>
  <metadata
     id="metadata1">
    <rdf:RDF>
      <cc:Work
         rdf:about="">
        <dc:creator>
          <cc:Agent>
            <dc:title>Patou (aka xorblo-doitus)</dc:title>
          </cc:Agent>
        </dc:creator>
      </cc:Work>
    </rdf:RDF>
  </metadata>
</svg>
